<svg xmlns="http://www.w3.org/2000/svg" xmlns:svg="http://www.w3.org/2000/svg" xmlns:xlink="http://www.w3.org/1999/xlink" id="Layer_1" width="330.835" height="370.37" data-name="Layer 1" version="1.1" viewBox="0 0 330.835 370.37"><metadata id="metadata3430"/><defs id="defs3404"><style id="style3406">.cls-1{fill:#fff}</style><linearGradient id="linear-gradient" x1="299.89" x2="161.25" y1="21.81" y2="172.05" gradientUnits="userSpaceOnUse"><stop id="stop3409" offset=".58" stop-color="#fff" stop-opacity=".7"/><stop id="stop3411" offset=".66" stop-color="#fff" stop-opacity=".6"/><stop id="stop3413" offset=".82" stop-color="#fff" stop-opacity=".35"/><stop id="stop3415" offset=".91" stop-color="#fff" stop-opacity=".2"/></linearGradient><linearGradient id="linear-gradient-2" x1="302.42" x2="441.05" y1="383.36" y2="233.12" gradientTransform="translate(-135.2647,-17.4)" xlink:href="#linear-gradient"/><linearGradient id="linearGradient3434" x1="299.89" x2="161.25" y1="21.81" y2="172.05" gradientTransform="translate(-135.2647,-17.4)" gradientUnits="userSpaceOnUse" xlink:href="#linear-gradient"/></defs><path id="path3420" d="m 38.735298,154.54 c 3.79,8.08 13.13,24 13.13,24 L 159.8653,0 54.485298,73.6 c -8.24,6.16 -12.35,11.17 -15,16.49 -14.35,28.93 -4.49,56.36 -0.75,64.45 z" style="fill:url(#linearGradient3434)"/><path id="path3422" d="M 0.93529824,206.86 C 3.7152982,241.92 21.515298,273.45 46.595298,291.54 L 159.7353,370.36 c 0,0 -70.700002,-101.93 -130.390002,-203.36 -6.47,-11 -10.86,-25.76 -12,-34.58 a 55.36,55.36 0 0 1 0.13,-16.59 c -1.55,2.87 -4.36,8.8 -4.36,8.8 -5.3899998,12.1 -10.8899998,25.92 -12.22999976,39.1 -0.89,9.29 -1.46,20.36 0.05,43.13 z" class="cls-1" style="fill:#fff"/><path id="path3424" d="m 292.9953,215.83 c -3.79,-8.08 -13.13,-24 -13.13,-24 l -108,178.54 105.39,-73.59 c 8.24,-6.16 12.35,-11.17 15,-16.49 14.39,-28.94 4.48,-56.37 0.74,-64.46 z" style="fill:url(#linear-gradient-2)"/><path id="path3426" d="m 330.8353,163.51 c -2.78,-35.06 -20.58,-66.59 -45.66,-84.68 L 172.0353,0.01 c 0,0 70.7,101.93 130.39,203.37 6.47,11 10.86,25.76 12,34.58" class="cls-1" style="fill:#fff"/></svg>